HIERARCHY
ROOT root
{
	OFFSET	0	13.1	24.9
	CHANNELS 6  Xposition Yposition Zposition Xrotation Yrotation Zrotation
	JOINT spine_1
	{
		OFFSET	0	9.99999	0
		CHANNELS 3  Xrotation Yrotation Zrotation
		JOINT spine_2
		{
			OFFSET	0	112	-10
			CHANNELS 3  Xrotation Yrotation Zrotation
			JOINT spine_3
			{
				OFFSET	0	206.5	19.3
				CHANNELS 3  Xrotation Yrotation Zrotation
				JOINT spine_4
				{
					OFFSET	0	110.4	14.6
					CHANNELS 3  Xrotation Yrotation Zrotation
					JOINT neck_1
					{
						OFFSET	0	71.8	-50.3
						CHANNELS 3  Xrotation Yrotation Zrotation
						JOINT neck_2
						{
							OFFSET	0	86.2	-25.8
							CHANNELS 3  Xrotation Yrotation Zrotation
							JOINT head_ee
							{
								OFFSET	0	179.8	-8.7
								CHANNELS 3  Xrotation Yrotation Zrotation
								End Site
								{
									OFFSET	1	0	0
								}
							}
						}
					}
					JOINT left_clavicle
					{
						OFFSET	-43.2	22.4	-70.8
						CHANNELS 3  Xrotation Yrotation Zrotation
						JOINT left_shoulder
						{
							OFFSET	-93.9	-5.79999	48.7
							CHANNELS 3  Xrotation Yrotation Zrotation
							JOINT left_elbow
							{
								OFFSET	-291.4	-30.8	15.2
								CHANNELS 3  Xrotation Yrotation Zrotation
								JOINT left_lowarm_twist
								{
									OFFSET	-110.7	-3.89999	13.6
									CHANNELS 3  Xrotation Yrotation Zrotation
									JOINT left_hand
									{
										OFFSET	-110.7	-3.89999	13.6
										CHANNELS 3  Xrotation Yrotation Zrotation
										JOINT left_ee
										{
											OFFSET	-80.8	-5.10001	12.1
											CHANNELS 3  Xrotation Yrotation Zrotation
											End Site
											{
												OFFSET	1	0	0
											}
										}
									}
								}
							}
						}
					}
					JOINT right_clavicle
					{
						OFFSET	43.2	22.4	-70.8
						CHANNELS 3  Xrotation Yrotation Zrotation
						JOINT right_shoulder
						{
							OFFSET	93.9	-5.79999	48.7
							CHANNELS 3  Xrotation Yrotation Zrotation
							JOINT right_elbow
							{
								OFFSET	291.4	-30.8	15.2
								CHANNELS 3  Xrotation Yrotation Zrotation
								JOINT right_lowarm_twist
								{
									OFFSET	110.7	-3.89999	13.6
									CHANNELS 3  Xrotation Yrotation Zrotation
									JOINT right_hand
									{
										OFFSET	110.7	-3.89999	13.6
										CHANNELS 3  Xrotation Yrotation Zrotation
										JOINT right_ee
										{
											OFFSET	80.8	-5.10001	12.1
											CHANNELS 3  Xrotation Yrotation Zrotation
											End Site
											{
												OFFSET	1	0	0
											}
										}
									}
								}
							}
						}
					}
				}
			}
		}
	}
	JOINT left_hip
	{
		OFFSET	-82.8	-127.5	0.300001
		CHANNELS 3  Xrotation Yrotation Zrotation
		JOINT left_knee
		{
			OFFSET	-28.2	-396.7	2.2
			CHANNELS 3  Xrotation Yrotation Zrotation
			JOINT left_ankle
			{
				OFFSET	-11.7	-411.3	35.4
				CHANNELS 3  Xrotation Yrotation Zrotation
				JOINT left_toes
				{
					OFFSET	0	-60	-88.6
					CHANNELS 3  Xrotation Yrotation Zrotation
					JOINT left_foot_ee
					{
						OFFSET	-22.5	-16.5	-42.2
						CHANNELS 3  Xrotation Yrotation Zrotation
						End Site
						{
							OFFSET	1	0	0
						}
					}
				}
			}
		}
	}
	JOINT right_hip
	{
		OFFSET	82.8	-127.5	0.300001
		CHANNELS 3  Xrotation Yrotation Zrotation
		JOINT right_knee
		{
			OFFSET	28.2	-396.7	2.2
			CHANNELS 3  Xrotation Yrotation Zrotation
			JOINT right_ankle
			{
				OFFSET	11.7	-411.3	35.4
				CHANNELS 3  Xrotation Yrotation Zrotation
				JOINT right_toes
				{
					OFFSET	0	-60	-88.6
					CHANNELS 3  Xrotation Yrotation Zrotation
					JOINT right_foot_ee
					{
						OFFSET	22.5	-16.5	-42.2
						CHANNELS 3  Xrotation Yrotation Zrotation
						End Site
						{
							OFFSET	1	0	0
						}
					}
				}
			}
		}
	}
}
MOTION
Frames: 12
Frame Time: 0.02
1968.91 728.714 -1244.83 -1.36832 54.4631 -0.141411 -4.67515 0.0556073 0.927883 -4.67467 -0.00354633 0.92954 -4.67398 -0.272187 0.888807 -4.67506 -0.128407 0.920636 12.2676 8.33165 -5.64033 13.2029 18.5783 -7.3236 -0.0 0.0 -0.0 9.92295 3.16628 19.3145 5.42942 -31.7572 41.4278 2.09743 -46.0903 0.892339 -23.2948 -1.37391 2.62207 -0.179611 2.13588 -0.294374 -0.0 0.0 -0.0 10.1903 5.89065 -20.2437 -16.0935 29.6631 -55.9878 0.433448 12.1186 -0.0460111 54.8544 1.33783 6.61352 -1.28785 -1.73707 7.85155 0.0 0.0 0.0 -0.825809 -28.3942 15.9372 -21.1333 0.280447 3.21259 38.3795 26.8928 -5.07213 39.3633 -0.0 -0.0 -0.0 0.0 -0.0 53.6261 78.7688 -26.2765 -2.58923 -0.0979153 -0.385264 4.72765 -21.5139 0.702182 24.7428 -0.0 -0.0 0.0 0.0 0.0 
1936.6 730.945 -1267.11 0.480356 56.3076 -2.90011 -4.72422 0.0181405 1.21739 -4.72339 -0.0593561 1.21608 -4.72345 -0.40949 1.14661 -4.72521 -0.22328 1.19688 10.9583 8.85882 -3.50585 11.6426 17.6161 -4.44352 -0.0 0.0 -0.0 9.39536 4.70614 18.1644 3.69283 -31.4439 43.3191 1.99828 -44.7039 0.821741 -25.7336 -1.57689 2.85967 0.0851005 0.340553 0.711247 -0.0 0.0 -0.0 10.1666 1.60907 -20.074 -16.8925 31.0647 -55.6965 0.50909 14.1544 -0.0632051 55.3451 1.37748 6.66233 -1.19752 -2.48091 6.91245 0.0 0.0 0.0 -1.13792 -25.1448 16.2669 -26.7024 0.156181 4.05785 38.2829 25.8618 -5.02747 39.4708 -0.0 -0.0 -0.0 0.0 -0.0 56.3674 78.4168 -31.3644 -7.12262 -0.227058 -1.06883 -2.35406 -19.2344 -0.352497 26.6641 -0.0 -0.0 0.0 0.0 0.0 
1910.63 731.893 -1281.42 2.0998 56.5525 -5.22136 -4.55487 0.0877793 1.47457 -4.55366 -0.00621874 1.47716 -4.55196 -0.430144 1.41318 -4.55469 -0.201587 1.46336 9.53802 9.2021 -2.5175 10.1193 17.452 -3.05282 -0.0 0.0 -0.0 9.38132 5.2455 18.1004 1.07485 -30.2198 44.0048 1.85899 -42.6374 0.725542 -27.6504 -1.74345 3.04028 0.234777 -2.58424 0.484279 -0.0 0.0 -0.0 10.2841 -0.575847 -20.2112 -17.1575 32.1647 -55.5286 0.531094 14.74 -0.0686948 55.5817 1.39675 6.68574 -1.13395 -1.93031 6.73404 0.0 0.0 0.0 -1.42771 -22.734 16.7971 -30.393 0.028815 4.60982 41.2955 25.7531 -5.31653 40.1552 -0.0 -0.0 -0.0 0.0 -0.0 57.0828 78.9175 -34.8234 -10.1032 -0.28233 -1.52281 -0.969663 -18.8546 -0.144599 26.4745 -0.0 -0.0 0.0 0.0 0.0 
1885.51 734.578 -1294.81 1.54317 56.231 -5.10929 -4.71774 0.311829 1.66003 -4.71624 0.20558 1.6765 -4.70739 -0.288972 1.66416 -4.71125 -0.022561 1.68891 9.41782 8.63819 -3.30116 10.0175 17.2458 -3.99554 -0.0 0.0 -0.0 9.28239 5.60534 17.883 -0.310189 -29.3789 44.3914 1.76641 -41.1831 0.663696 -27.5394 -1.73365 3.02998 0.238983 -2.52692 0.536658 -0.0 0.0 -0.0 10.6456 0.0378679 -20.9976 -15.7517 32.8452 -55.4183 0.548781 15.2085 -0.073265 55.7334 1.40914 6.70069 -1.17464 -2.41902 6.78742 0.0 0.0 0.0 0.299809 -22.4124 15.8065 -30.5341 0.0232391 4.63076 41.083 26.0616 -5.30741 40.131 -0.0 -0.0 -0.0 0.0 -0.0 56.6844 78.5608 -35.5033 -11.8994 -0.304207 -1.79754 -3.99387 -21.3256 -0.60451 26.4838 -0.0 -0.0 0.0 0.0 0.0 
1864.96 729.013 -1307.49 3.32491 57.2101 -7.2069 -4.74552 0.156353 1.6008 -4.74409 0.0541867 1.60751 -4.7402 -0.414818 1.55402 -4.74353 -0.164217 1.60002 8.70127 10.9357 -4.07697 9.64086 21.8374 -4.89893 -0.0 0.0 -0.0 9.31277 4.80756 17.9958 -2.42071 -27.6319 44.9689 1.61211 -38.6076 0.564706 -26.7532 -1.66473 2.95643 0.286457 -3.02746 0.64491 -0.0 0.0 -0.0 10.4974 -0.0508004 -20.6834 -13.2856 34.4204 -56.2396 0.528043 14.659 -0.0679206 55.6538 1.40263 6.69285 -1.29527 -2.83891 7.40412 0.0 0.0 0.0 0.232142 -20.7381 15.9678 -34.9191 -0.175555 5.27406 39.8664 26.1576 -5.19399 39.4484 -0.0 -0.0 -0.0 0.0 -0.0 58.1808 75.6171 -37.9107 -19.5919 -0.30027 -2.97692 -7.36532 -21.7867 -1.12323 29.2121 -0.0 -0.0 0.0 0.0 0.0 
1830.18 730.543 -1321.31 6.81916 57.702 -11.1529 -5.05056 0.28756 1.61196 -5.04913 0.184418 1.62698 -5.04112 -0.30426 1.60889 -5.04473 -0.046383 1.63674 8.78416 11.2374 -3.63077 9.70997 21.9277 -4.3692 -0.0 0.0 -0.0 9.02666 5.08022 17.4206 -4.59297 -27.4728 47.4571 1.39685 -34.6797 0.436157 -24.719 -1.49121 2.76186 0.421378 -2.64243 1.71338 -0.0 0.0 -0.0 10.8617 1.44414 -21.5305 -12.9448 33.9488 -54.7067 0.491931 13.6956 -0.0590757 57.0692 1.52006 6.83107 -1.27783 -3.21741 7.11682 0.0 0.0 0.0 1.04146 -20.0795 16.9548 -38.8382 -0.394511 5.83495 40.0716 25.334 -5.18581 40.1469 -0.0 -0.0 -0.0 0.0 -0.0 49.725 72.588 -33.2491 -25.5272 -0.189238 -3.88052 -2.41849 -25.9102 -0.372936 31.4469 -0.0 -0.0 0.0 0.0 0.0 
1806.79 734.336 -1332.59 8.3976 57.2654 -12.1892 -4.84873 0.332599 1.76086 -4.84703 0.219894 1.77845 -4.83696 -0.308809 1.76519 -4.84131 -0.0262014 1.7918 9.0664 10.1256 -4.14844 9.92393 20.5096 -5.02348 -0.0 0.0 -0.0 9.16724 4.37414 17.7378 -8.82046 -25.8031 47.0449 1.32864 -33.3501 0.397999 -25.4135 -1.54968 2.82898 0.326835 -3.31913 0.793598 -0.0 0.0 -0.0 11.2956 2.15724 -22.4934 -11.6221 34.5148 -54.0854 0.466586 13.0146 -0.0532212 56.9864 1.5131 6.82307 -1.41196 -3.96228 7.67207 0.0 0.0 0.0 1.76852 -18.692 15.9497 -40.9889 -0.530878 6.13615 41.9447 22.8828 -5.28289 39.9863 -0.0 -0.0 -0.0 0.0 -0.0 47.8018 72.9297 -34.1424 -26.7703 -0.154158 -4.06807 -2.03667 -23.7606 -0.31039 31.6347 -0.0 -0.0 0.0 0.0 0.0 
1777.21 733.975 -1352.92 11.5644 57.8335 -15.2812 -5.16899 0.378228 1.87407 -5.16707 0.258231 1.89433 -5.15463 -0.316424 1.88548 -5.15959 -0.0147329 1.91178 10.2166 10.4549 -3.96978 11.1354 20.7385 -4.98241 -0.0 0.0 -0.0 8.94468 4.88681 17.2728 -10.3876 -24.6427 47.9163 1.12678 -29.1682 0.29318 -24.3436 -1.45995 2.7253 0.267031 -1.61358 1.10862 -0.0 0.0 -0.0 11.1618 3.68369 -22.2776 -12.0452 36.421 -54.6085 0.433142 12.1103 -0.045947 56.7381 1.49229 6.799 -1.36411 -4.10048 7.29093 0.0 0.0 0.0 2.0098 -17.7273 15.8305 -46.6106 -0.939954 6.89768 40.2928 23.5636 -5.15082 39.9269 -0.0 -0.0 -0.0 0.0 -0.0 36.6121 65.4496 -26.326 -30.2671 -0.0337433 -4.59113 -1.17149 -28.7787 -0.183311 34.0964 -0.0 -0.0 0.0 0.0 0.0 
1752.07 737.245 -1364.35 13.4793 57.0653 -16.8582 -5.54556 0.553322 1.85568 -5.54375 0.43414 1.88711 -5.52506 -0.158707 1.92988 -5.53023 0.148015 1.93073 10.5528 10.8055 -3.32601 11.4447 20.679 -4.23215 -0.0 0.0 -0.0 8.63513 5.42751 16.643 -12.7277 -23.2576 49.2731 1.08746 -28.3105 0.274275 -23.6376 -1.40182 2.65598 0.286309 -2.23378 0.977659 -0.0 0.0 -0.0 11.0293 3.43202 -21.9815 -10.4378 36.5498 -54.201 0.532477 14.7767 -0.0690471 57.2738 1.53732 6.85082 -1.61183 -6.93813 7.62257 0.0 0.0 0.0 3.88851 -17.6122 15.7896 -50.2116 -1.24065 7.36333 40.7925 23.3489 -5.19121 39.6627 -0.0 -0.0 -0.0 0.0 -0.0 34.9716 63.6246 -27.3223 -34.411 0.149999 -5.2003 -3.4547 -27.6936 -0.539283 32.4889 -0.0 -0.0 0.0 0.0 0.0 
1733.44 743.534 -1376.42 14.8812 56.1492 -17.61 -5.82149 0.696115 1.79887 -5.81988 0.580258 1.8395 -5.79669 -0.0140927 1.92877 -5.80177 0.290641 1.90681 10.8394 11.1967 -2.66592 11.7067 20.6714 -3.45131 -0.0 0.0 -0.0 8.62637 5.47068 16.6237 -14.0024 -22.2411 50.1202 0.980181 -25.8985 0.225384 -22.8292 -1.33631 2.57574 0.265315 -1.76174 1.03496 -0.0 0.0 -0.0 10.8343 4.0706 -21.5859 -9.44208 37.6429 -54.6561 0.60776 16.7554 -0.0895054 57.3039 1.53986 6.85372 -1.72127 -8.74624 7.49113 0.0 0.0 0.0 5.33765 -17.4069 15.2682 -52.8344 -1.47788 7.69032 39.5597 23.9748 -5.09339 39.2731 -0.0 -0.0 -0.0 0.0 -0.0 32.7951 58.8889 -27.1973 -37.3521 0.306958 -5.624 -4.28139 -29.7122 -0.67803 32.3483 -0.0 -0.0 0.0 0.0 0.0 
1714.14 746.209 -1388.54 16.3637 56.2551 -18.4994 -5.93826 0.745135 2.06982 -5.93609 0.611947 2.11302 -5.90751 -0.0723829 2.19862 -5.91415 0.275671 2.18247 9.71321 11.5005 -1.73353 10.4757 20.5074 -2.1547 -0.0 0.0 -0.0 8.37585 5.30665 16.1508 -15.2344 -21.3189 50.3218 0.879701 -23.5463 0.183352 -22.2596 -1.29084 2.51866 0.242488 -1.27007 1.08817 -0.0 0.0 -0.0 10.7558 4.79781 -21.4394 -7.67733 38.8091 -55.4231 0.697579 19.0631 -0.117131 57.3311 1.54216 6.85633 -1.78581 -10.0198 7.30687 0.0 0.0 0.0 5.81797 -17.7274 14.81 -54.8109 -1.66647 7.92948 38.4815 24.7395 -5.01153 38.989 -0.0 -0.0 -0.0 0.0 -0.0 30.9719 55.9916 -27.0129 -39.0855 0.409612 -5.86984 -4.72287 -30.564 -0.752923 32.2434 -0.0 -0.0 0.0 0.0 0.0 
1700.4 747.468 -1397.0 16.7089 56.704 -19.1339 -5.7604 0.56761 2.38234 -5.75734 0.414911 2.4136 -5.73281 -0.345626 2.42449 -5.74101 0.0414953 2.44863 7.7147 11.8471 -0.664197 8.35401 20.4656 -0.615467 -0.0 0.0 -0.0 6.62704 4.7371 12.8373 -12.9756 -20.5343 54.6606 0.773061 -20.9544 0.142962 -21.4662 -1.22847 2.43842 0.221895 -0.0428034 1.46406 -0.0 0.0 -0.0 10.8545 5.70821 -21.6768 -5.51355 39.9769 -54.6956 0.845838 22.7337 -0.170044 57.2614 1.53627 6.84962 -1.73209 -12.1369 5.95828 0.0 0.0 0.0 7.23521 -19.5982 15.1687 -53.4264 -1.5335 7.76263 35.9203 26.5378 -4.80595 39.314 -0.0 -0.0 -0.0 0.0 -0.0 26.1504 54.0572 -22.2855 -38.0928 0.349911 -5.72943 0.122717 -28.9533 0.0191726 31.0875 -0.0 -0.0 0.0 0.0 0.0 
